<svg width="56" height="56" viewBox="0 0 56 56" fill="none" xmlns="http://www.w3.org/2000/svg">
<g clip-path="url(#clip0_23_50)">
<path d="M0 10.4543V44.9004H16.6959C18.239 44.9004 19.7475 44.7063 21.1986 44.3218C22.6658 43.9358 23.9764 43.341 25.1167 42.5342C26.2484 41.7336 27.1663 40.6955 27.8413 39.4147C28.5091 38.1501 28.8433 36.6451 28.8433 34.8988C28.8433 32.7447 28.3323 30.9067 27.2858 29.3711C26.2451 27.8447 24.6755 26.772 22.5552 26.1637C24.1124 25.4262 25.2754 24.4774 26.0692 23.3224C26.8557 22.1635 27.2494 20.7152 27.2494 18.9808C27.2494 17.3771 26.9864 16.0228 26.4619 14.9399C25.9238 13.8412 25.1739 12.9678 24.2144 12.3112C23.24 11.656 22.0864 11.1779 20.7349 10.8914C19.3753 10.5971 17.8883 10.4546 16.24 10.4546L0 10.4543ZM36.5573 12.765V16.164H50.5209V12.765H36.5573ZM7.58543 16.321H14.6804C15.3508 16.321 16.0064 16.3686 16.6308 16.4916C17.2674 16.6003 17.8162 16.8043 18.3015 17.0971C18.7906 17.3783 19.1774 17.7808 19.4705 18.2946C19.7524 18.8086 19.8919 19.4701 19.8919 20.2718C19.8919 21.7159 19.4693 22.769 18.5967 23.4046C17.7151 24.0521 16.6033 24.3722 15.2591 24.3722H7.58543V16.321ZM43.8571 19.2526C41.9461 19.2526 40.2201 19.5938 38.6552 20.27C37.0907 20.9476 35.7471 21.8741 34.6143 23.0501C33.4836 24.2194 32.6228 25.6135 32.001 27.2289C31.3915 28.8389 31.0812 30.581 31.0812 32.4462C31.0812 34.3754 31.3808 36.1541 31.976 37.763C32.578 39.3783 33.4222 40.7548 34.5091 41.9186C35.6244 43.0776 36.9497 43.9682 38.5364 44.6013C40.1245 45.2289 41.8922 45.5458 43.8571 45.5458C46.6758 45.5458 49.0945 44.8993 51.0785 43.6031C53.085 42.3132 54.5557 40.1707 55.5254 37.1691H49.4937C49.2604 37.9408 48.6561 38.6835 47.6644 39.3781C46.6622 40.0753 45.4671 40.4262 44.0851 40.4262C42.164 40.4262 40.6812 39.9204 39.6552 38.9184C38.6258 37.9165 37.9596 36.051 37.9596 34.0786H55.9566C56.0854 32.1441 55.9281 30.2944 55.4794 28.526C55.0272 26.7524 54.3051 25.1742 53.2877 23.7917C52.2716 22.4078 50.9768 21.3027 49.3981 20.4865C47.8142 19.6598 45.9674 19.2526 43.8571 19.2526ZM43.6501 24.4256C45.3322 24.4256 46.7129 24.9138 47.5263 25.8149C48.3436 26.7226 48.9414 28.0157 49.105 29.7617H37.9596C37.9913 29.2752 38.0949 28.7248 38.272 28.1179C38.4468 27.4954 38.7478 26.913 39.1897 26.3609C39.6342 25.8182 40.2169 25.3552 40.9257 24.9852C41.6512 24.61 42.5558 24.4259 43.6501 24.4259V24.4256ZM7.58567 29.5494H15.8303C17.4627 29.5494 18.7894 29.9232 19.7848 30.6778C20.7786 31.4431 21.2793 32.7043 21.2793 34.4793C21.2793 35.3858 21.1318 36.1345 20.8252 36.7113C20.5196 37.2935 20.1005 37.7534 19.5932 38.0871C19.0864 38.435 18.4842 38.6699 17.8057 38.819C17.1379 38.9681 16.4278 39.0337 15.6788 39.0337H7.58543L7.58567 29.5494Z" fill="#F9D13A"/>
</g>
<defs>
<clipPath id="clip0_23_50">
<rect width="56" height="56" fill="white"/>
</clipPath>
</defs>
</svg>
