<svg width="56" height="56" viewBox="0 0 56 56" fill="none" xmlns="http://www.w3.org/2000/svg">
<g clip-path="url(#clip0_23_47)">
<path d="M28 0.693115C12.53 0.693115 0 13.2301 0 28.6931C0 41.0668 8.022 51.5598 19.145 55.2581C20.545 55.5218 21.0583 54.6561 21.0583 53.9118C21.0583 53.2468 21.035 51.4851 21.0233 49.1518C13.2347 50.8411 11.592 45.3951 11.592 45.3951C10.318 42.1634 8.477 41.3001 8.477 41.3001C5.94067 39.5641 8.673 39.5991 8.673 39.5991C11.4847 39.7951 12.9617 42.4831 12.9617 42.4831C15.4583 46.7648 19.516 45.5281 21.1167 44.8118C21.3687 43.0011 22.0897 41.7668 22.89 41.0668C16.6717 40.3668 10.136 37.9588 10.136 27.2301C10.136 24.1734 11.221 21.6768 13.0177 19.7168C12.7027 19.0098 11.7577 16.1631 13.2627 12.3061C13.2627 12.3061 15.6077 11.5548 20.9627 15.1761C23.2027 14.5531 25.5827 14.2451 27.9627 14.2311C30.3427 14.2451 32.7227 14.5531 34.9627 15.1761C40.2827 11.5548 42.6277 12.3061 42.6277 12.3061C44.1327 16.1631 43.1877 19.0098 42.9077 19.7168C44.6927 21.6768 45.7777 24.1734 45.7777 27.2301C45.7777 37.9868 39.2327 40.3551 33.0027 41.0434C33.9827 41.8834 34.8927 43.6008 34.8927 46.2234C34.8927 49.9708 34.8577 52.9808 34.8577 53.8908C34.8577 54.6258 35.3477 55.5008 36.7827 55.2208C47.985 51.5481 56 41.0481 56 28.6931C56 13.2301 43.463 0.693115 28 0.693115Z" fill="#C0CA0F"/>
</g>
<defs>
<clipPath id="clip0_23_47">
<rect width="56" height="56" fill="white"/>
</clipPath>
</defs>
</svg>
