<svg width="56" height="56" viewBox="0 0 56 56" fill="none" xmlns="http://www.w3.org/2000/svg">
<path d="M18.2 4.66675H37.8C45.2666 4.66675 51.3333 10.7334 51.3333 18.2001V37.8001C51.3333 41.3893 49.9075 44.8316 47.3695 47.3696C44.8315 49.9076 41.3892 51.3334 37.8 51.3334H18.2C10.7333 51.3334 4.66663 45.2668 4.66663 37.8001V18.2001C4.66663 14.6108 6.09246 11.1686 8.63045 8.63057C11.1684 6.09258 14.6107 4.66675 18.2 4.66675ZM17.7333 9.33342C15.5055 9.33342 13.3689 10.2184 11.7936 11.7937C10.2183 13.369 9.33329 15.5056 9.33329 17.7334V38.2668C9.33329 42.9101 13.09 46.6668 17.7333 46.6668H38.2666C40.4944 46.6668 42.631 45.7818 44.2063 44.2065C45.7816 42.6311 46.6666 40.4946 46.6666 38.2668V17.7334C46.6666 13.0901 42.91 9.33342 38.2666 9.33342H17.7333ZM40.25 12.8334C41.0235 12.8334 41.7654 13.1407 42.3124 13.6877C42.8593 14.2347 43.1666 14.9765 43.1666 15.7501C43.1666 16.5236 42.8593 17.2655 42.3124 17.8125C41.7654 18.3595 41.0235 18.6667 40.25 18.6667C39.4764 18.6667 38.7345 18.3595 38.1876 17.8125C37.6406 17.2655 37.3333 16.5236 37.3333 15.7501C37.3333 14.9765 37.6406 14.2347 38.1876 13.6877C38.7345 13.1407 39.4764 12.8334 40.25 12.8334ZM28 16.3334C31.0942 16.3334 34.0616 17.5626 36.2495 19.7505C38.4375 21.9384 39.6666 24.9059 39.6666 28.0001C39.6666 31.0943 38.4375 34.0617 36.2495 36.2497C34.0616 38.4376 31.0942 39.6668 28 39.6668C24.9058 39.6668 21.9383 38.4376 19.7504 36.2497C17.5625 34.0617 16.3333 31.0943 16.3333 28.0001C16.3333 24.9059 17.5625 21.9384 19.7504 19.7505C21.9383 17.5626 24.9058 16.3334 28 16.3334ZM28 21.0001C26.1434 21.0001 24.363 21.7376 23.0502 23.0503C21.7375 24.3631 21 26.1436 21 28.0001C21 29.8566 21.7375 31.6371 23.0502 32.9498C24.363 34.2626 26.1434 35.0001 28 35.0001C29.8565 35.0001 31.637 34.2626 32.9497 32.9498C34.2625 31.6371 35 29.8566 35 28.0001C35 26.1436 34.2625 24.3631 32.9497 23.0503C31.637 21.7376 29.8565 21.0001 28 21.0001Z" fill="#C0CA0F"/>
</svg>
