<svg width="56" height="56" viewBox="0 0 56 56" fill="none" xmlns="http://www.w3.org/2000/svg">
<path d="M45.0833 12.9784C44.7289 12.7953 44.3839 12.5945 44.0497 12.3769C43.0776 11.7342 42.1864 10.977 41.3951 10.1216C39.4154 7.85641 38.6761 5.55844 38.4037 3.94953H38.4147C38.1872 2.61406 38.2812 1.75 38.2954 1.75H29.2786V36.6166C29.2786 37.0847 29.2786 37.5473 29.2589 38.0045C29.2589 38.0614 29.2534 38.1139 29.2501 38.1752C29.2501 38.2003 29.2501 38.2266 29.2447 38.2528V38.2725C29.1496 39.5235 28.7486 40.732 28.0769 41.7916C27.4052 42.8513 26.4833 43.7296 25.3925 44.3494C24.2556 44.9962 22.9697 45.3354 21.6617 45.3338C17.4606 45.3338 14.0558 41.9081 14.0558 37.6775C14.0558 33.4469 17.4606 30.0213 21.6617 30.0213C22.4569 30.0205 23.2473 30.1457 24.0034 30.392L24.0144 21.2111C21.719 20.9146 19.3871 21.097 17.1657 21.7469C14.9443 22.3967 12.8818 23.4998 11.1081 24.9867C9.55396 26.3371 8.24738 27.9483 7.24717 29.7478C6.86654 30.4041 5.43045 33.0411 5.25654 37.3209C5.14717 39.7502 5.8767 42.2669 6.22451 43.307V43.3289C6.44326 43.9414 7.29092 46.0316 8.67232 47.7936C9.78624 49.207 11.1023 50.4486 12.5781 51.4784V51.4566L12.6 51.4784C16.9651 54.4447 21.805 54.25 21.805 54.25C22.6428 54.2161 25.4494 54.25 28.6365 52.7395C32.1715 51.065 34.184 48.5702 34.184 48.5702C35.4697 47.0795 36.4921 45.3806 37.2072 43.5466C38.0231 41.4017 38.2954 38.8292 38.2954 37.8011V19.3036C38.4048 19.3692 39.8617 20.3328 39.8617 20.3328C39.8617 20.3328 41.9606 21.6781 45.2353 22.5542C47.5847 23.1777 50.75 23.3089 50.75 23.3089V14.3577C49.6409 14.478 47.3889 14.128 45.0833 12.9784V12.9784Z" fill="#F9D13A"/>
</svg>
