<svg width="56" height="56" viewBox="0 0 56 56" fill="none" xmlns="http://www.w3.org/2000/svg">
<path d="M28.1785 6.99658H28.49C31.367 7.00708 45.9445 7.11208 49.875 8.16908C51.0632 8.49167 52.146 9.12046 53.0151 9.99261C53.8841 10.8648 54.5091 11.9497 54.8275 13.1391C55.181 14.4691 55.4295 16.2296 55.5975 18.0461L55.6325 18.4101L55.7095 19.3201L55.7375 19.6841C55.965 22.8831 55.993 25.8791 55.9965 26.5336V26.7961C55.993 27.4751 55.9615 30.6741 55.7095 34.0061L55.6815 34.3736L55.65 34.7376C55.475 36.7396 55.216 38.7276 54.8275 40.1906C54.5101 41.3804 53.8854 42.4659 53.0162 43.3382C52.147 44.2105 51.0637 44.839 49.875 45.1606C45.815 46.2526 30.3835 46.3296 28.245 46.3331H27.748C26.6665 46.3331 22.1935 46.3121 17.5035 46.1511L16.9085 46.1301L16.604 46.1161L16.0055 46.0916L15.407 46.0671C11.522 45.8956 7.8225 45.6191 6.118 45.1571C4.92971 44.8358 3.84673 44.2078 2.97754 43.3362C2.10834 42.4645 1.48346 41.3798 1.1655 40.1906C0.777 38.7311 0.518 36.7396 0.343 34.7376L0.315 34.3701L0.287 34.0061C0.114267 31.6345 0.0185495 29.2579 0 26.8801L0 26.4496C0.007 25.6971 0.035 23.0966 0.224 20.2266L0.2485 19.8661L0.259 19.6841L0.287 19.3201L0.364 18.4101L0.399 18.0461C0.567 16.2296 0.8155 14.4656 1.169 13.1391C1.48643 11.9492 2.11107 10.8638 2.9803 9.99147C3.84952 9.11917 4.93279 8.49071 6.1215 8.16908C7.826 7.71408 11.5255 7.43408 15.4105 7.25908L16.0055 7.23458L16.6075 7.21358L16.9085 7.20308L17.507 7.17858C20.838 7.07139 24.1703 7.01189 27.503 7.00008H28.1785V6.99658ZM22.4 18.2316V35.0946L36.9495 26.6666L22.4 18.2316Z" fill="#F78012"/>
</svg>
